[img]http://img440.imageshack.us/img440/9899/twlight.jpg[/img]
[code]

Imdb: 
http://www.imdb.com/title/tt1324999/

Plot:
The Quileute's close in on expecting parents Edward and Bella, whose unborn child poses a threat to the 

Wolf Pack and the towns people of Forks.

Sources:
Video-TNZ 720p
Audio-RiPLEGENDZ
Encoded by LoGiCurl+Memory100

Notes:
Encoded Video and added few filters to the video :)
enjoy full line !  there is a little tiny buzz it is small not noticable! so take or leave it!

Greetz:
To all the people who have helped me :P you know hwo you are

Video
ID                                       : 0
Format                                   : MPEG-4 Visual
Format profile                           : Advanced Simple@L5
Format settings, BVOP                    : 2
Format settings, QPel                    : No
Format settings, GMC                     : No warppoints
Format settings, Matrix                  : Default (H.263)
Codec ID                                 : XVID
Codec ID/Hint                            : XviD
Duration                                 : 1h 46mn
Bit rate                                 : 2 100 Kbps
Width                                    : 1 280 pixels
Height                                   : 544 pixels
Display aspect ratio                     : 2.35:1
Frame rate                               : 25.000 fps
Color space                              : YUV
Chroma subsampling                       : 4:2:0
Bit depth                                : 8 bits
Scan type                                : Progressive
Compression mode                         : Lossy
Bits/(Pixel*Frame)                       : 0.121
Stream size                              : 1.57 GiB (90%)
Writing library                          : XviD 63

Audio
ID                                       : 1
Format                                   : AC-3
Format/Info                              : Audio Coding 3
Mode extension                           : CM (complete main)
Codec ID                                 : 2000
Duration                                 : 1h 46mn
Bit rate mode                            : Constant
Bit rate                                 : 224 Kbps
Channel(s)                               : 2 channels
Channel positions                        : Front: L R
Sampling rate                            : 44.1 KHz
Bit depth                                : 16 bits
Compression mode                         : Lossy
Stream size                              : 171 MiB (10%)
Alignment                                : Aligned on interleaves
Interleave, duration                     : 35 ms (0.87 video frame)

[/code]
Screens:
[img]http://img835.imageshack.us/img835/6928/vlcsnap2011120621h35m25.png[/img]
[img]http://img833.imageshack.us/img833/1674/vlcsnap2011120621h35m36.png[/img]
[img]http://img97.imageshack.us/img97/9536/vlcsnap2011120621h35m46.png[/img]
[img]http://img94.imageshack.us/img94/7342/vlcsnap2011120621h36m01.png[/img]
[img]http://img851.imageshack.us/img851/3517/vlcsnap2011120621h36m10.png[/img]
[img]http://img69.imageshack.us/img69/7913/vlcsnap2011120621h36m21.png[/img]
[img]http://img820.imageshack.us/img820/7039/vlcsnap2011120621h36m25.png[/img]
[img]http://img684.imageshack.us/img684/6905/vlcsnap2011120621h36m32.png[/img]